{
    "asset" : {
        "generator" : "Khronos glTF Blender I/O v1.8.19",
        "version" : "2.0"
    },
    "scene" : 0,
    "scenes" : [
        {
            "name" : "Scene",
            "nodes" : [
                0,
                1,
                2,
                3
            ]
        }
    ],
    "nodes" : [
        {
            "mesh" : 0,
            "name" : "Cube",
            "translation" : [
                0,
                0.023024296388030052,
                0
            ]
        },
        {
            "mesh" : 1,
            "name" : "Cube.001",
            "scale" : [
                0.9458313584327698,
                0.5225406289100647,
                0.9458313584327698
            ],
            "translation" : [
                0,
                0.18190880119800568,
                0
            ]
        },
        {
            "mesh" : 2,
            "name" : "Plane",
            "translation" : [
                0.00191691261716187,
                0.057905517518520355,
                -0.015803348273038864
            ]
        },
        {
            "mesh" : 3,
            "name" : "Cube.002",
            "rotation" : [
                1,
                0,
                0,
                -1.6292068494294654e-07
            ],
            "translation" : [
                0,
                0.52259361743927,
                0
            ]
        }
    ],
    "materials" : [
        {
            "doubleSided" : true,
            "name" : "bunMat",
            "pbrMetallicRoughness" : {
                "baseColorFactor" : [
                    0.8000000715255737,
                    0.37342774868011475,
                    0.1462213695049286,
                    1
                ],
                "metallicFactor" : 0
            }
        },
        {
            "doubleSided" : true,
            "name" : "meatMat",
            "pbrMetallicRoughness" : {
                "baseColorFactor" : [
                    0.2066851407289505,
                    0.06625206023454666,
                    0.00755845382809639,
                    1
                ],
                "metallicFactor" : 0
            }
        },
        {
            "doubleSided" : true,
            "name" : "cheeseMat",
            "pbrMetallicRoughness" : {
                "baseColorFactor" : [
                    1,
                    0.8941473364830017,
                    0.522482693195343,
                    1
                ],
                "metallicFactor" : 0,
                "roughnessFactor" : 0.39714282751083374
            }
        }
    ],
    "meshes" : [
        {
            "name" : "Mesh",
            "primitives" : [
                {
                    "attributes" : {
                        "POSITION" : 0,
                        "NORMAL" : 1,
                        "COLOR_0" : 2
                    },
                    "indices" : 3,
                    "material" : 0
                }
            ]
        },
        {
            "name" : "Mesh",
            "primitives" : [
                {
                    "attributes" : {
                        "POSITION" : 4,
                        "NORMAL" : 5,
                        "COLOR_0" : 6
                    },
                    "indices" : 7,
                    "material" : 1
                }
            ]
        },
        {
            "name" : "Plane",
            "primitives" : [
                {
                    "attributes" : {
                        "POSITION" : 8,
                        "NORMAL" : 9
                    },
                    "indices" : 10,
                    "material" : 2
                }
            ]
        },
        {
            "name" : "Mesh",
            "primitives" : [
                {
                    "attributes" : {
                        "POSITION" : 11,
                        "NORMAL" : 12,
                        "COLOR_0" : 13
                    },
                    "indices" : 14,
                    "material" : 0
                }
            ]
        }
    ],
    "accessors" : [
        {
            "bufferView" : 0,
            "componentType" : 5126,
            "count" : 3586,
            "max" : [
                0.45833340287208557,
                0.17531971633434296,
                0.4583333730697632
            ],
            "min" : [
                -0.45833340287208557,
                -0.03207462653517723,
                -0.45833340287208557
            ],
            "type" : "VEC3"
        },
        {
            "bufferView" : 1,
            "componentType" : 5126,
            "count" : 3586,
            "type" : "VEC3"
        },
        {
            "bufferView" : 2,
            "componentType" : 5123,
            "count" : 3586,
            "normalized" : true,
            "type" : "VEC4"
        },
        {
            "bufferView" : 3,
            "componentType" : 5123,
            "count" : 21504,
            "type" : "SCALAR"
        },
        {
            "bufferView" : 4,
            "componentType" : 5126,
            "count" : 4610,
            "max" : [
                0.4583333730697632,
                0.20259319245815277,
                0.4583333730697632
            ],
            "min" : [
                -0.4583333432674408,
                -0.02753753587603569,
                -0.4583333730697632
            ],
            "type" : "VEC3"
        },
        {
            "bufferView" : 5,
            "componentType" : 5126,
            "count" : 4610,
            "type" : "VEC3"
        },
        {
            "bufferView" : 6,
            "componentType" : 5123,
            "count" : 4610,
            "normalized" : true,
            "type" : "VEC4"
        },
        {
            "bufferView" : 7,
            "componentType" : 5123,
            "count" : 27648,
            "type" : "SCALAR"
        },
        {
            "bufferView" : 8,
            "componentType" : 5126,
            "count" : 714,
            "max" : [
                0.39960741996765137,
                0.28748154640197754,
                0.4269503355026245
            ],
            "min" : [
                -0.4512927234172821,
                0.13813582062721252,
                -0.3914772570133209
            ],
            "type" : "VEC3"
        },
        {
            "bufferView" : 9,
            "componentType" : 5126,
            "count" : 714,
            "type" : "VEC3"
        },
        {
            "bufferView" : 10,
            "componentType" : 5123,
            "count" : 3456,
            "type" : "SCALAR"
        },
        {
            "bufferView" : 11,
            "componentType" : 5126,
            "count" : 73730,
            "max" : [
                0.45833340287208557,
                0.2232244908809662,
                0.4583333730697632
            ],
            "min" : [
                -0.45833340287208557,
                0.020366035401821136,
                -0.45833340287208557
            ],
            "type" : "VEC3"
        },
        {
            "bufferView" : 12,
            "componentType" : 5126,
            "count" : 73730,
            "type" : "VEC3"
        },
        {
            "bufferView" : 13,
            "componentType" : 5123,
            "count" : 73730,
            "normalized" : true,
            "type" : "VEC4"
        },
        {
            "bufferView" : 14,
            "componentType" : 5125,
            "count" : 442368,
            "type" : "SCALAR"
        }
    ],
    "bufferViews" : [
        {
            "buffer" : 0,
            "byteLength" : 43032,
            "byteOffset" : 0
        },
        {
            "buffer" : 0,
            "byteLength" : 43032,
            "byteOffset" : 43032
        },
        {
            "buffer" : 0,
            "byteLength" : 28688,
            "byteOffset" : 86064
        },
        {
            "buffer" : 0,
            "byteLength" : 43008,
            "byteOffset" : 114752
        },
        {
            "buffer" : 0,
            "byteLength" : 55320,
            "byteOffset" : 157760
        },
        {
            "buffer" : 0,
            "byteLength" : 55320,
            "byteOffset" : 213080
        },
        {
            "buffer" : 0,
            "byteLength" : 36880,
            "byteOffset" : 268400
        },
        {
            "buffer" : 0,
            "byteLength" : 55296,
            "byteOffset" : 305280
        },
        {
            "buffer" : 0,
            "byteLength" : 8568,
            "byteOffset" : 360576
        },
        {
            "buffer" : 0,
            "byteLength" : 8568,
            "byteOffset" : 369144
        },
        {
            "buffer" : 0,
            "byteLength" : 6912,
            "byteOffset" : 377712
        },
        {
            "buffer" : 0,
            "byteLength" : 884760,
            "byteOffset" : 384624
        },
        {
            "buffer" : 0,
            "byteLength" : 884760,
            "byteOffset" : 1269384
        },
        {
            "buffer" : 0,
            "byteLength" : 589840,
            "byteOffset" : 2154144
        },
        {
            "buffer" : 0,
            "byteLength" : 1769472,
            "byteOffset" : 2743984
        }
    ],
    "buffers" : [
        {
            "byteLength" : 4513456,
            "uri" : "hamburger.bin"
        }
    ]
}
